<?xml version="1.0" encoding="utf-8"?>
<!-- Generator: Adobe Illustrator 28.0.0, SVG Export Plug-In . SVG Version: 6.00 Build 0)  -->
<svg version="1.1" id="Capa_3" xmlns="http://www.w3.org/2000/svg" xmlns:xlink="http://www.w3.org/1999/xlink" x="0px" y="0px"
	 viewBox="0 0 50 50" style="enable-background:new 0 0 50 50;" xml:space="preserve">
<style type="text/css">
	.st0{fill:#FFFFFF;}
</style>
<g>
	<path class="st0" d="M45,25c0-10.5-7.6-18.9-18-20c-0.7-0.1-1.3-0.1-2-0.2c-1.7-0.2-2.6-1.1-2.5-2.5C22.6,0.9,23.6,0,25.3,0
		c2.1,0,4.1,0.3,6.2,0.8C42.2,3.7,50,13.8,50,25c0,12.3-9.2,22.9-21.3,24.7c-1.1,0.2-2.2,0.3-3.3,0.3c-1.7,0-2.8-0.9-2.8-2.3
		c0-1.5,1-2.5,2.8-2.5c2.3-0.1,4.5-0.5,6.7-1.3C39.9,41,45,33.5,45,25z"/>
	<path class="st0" d="M14.5,22.2c0.6,0.4,1.1,0.3,1.6,0.3c6.7,0,13.4,0,20.1,0c0.5,0,0.9,0,1.4,0c1.5,0.2,2.6,1.3,2.5,2.6
		c-0.1,1.4-1.1,2.2-2.7,2.2c-7,0-14,0-21.1,0c-0.5,0-1.4-0.3-1.6,0.3c-0.2,0.5,0.6,0.9,1,1.3c1.4,1.3,2.8,2.6,4.2,3.9
		c0.8,0.8,1.6,1.6,1.3,2.9c-0.4,1.8-2.6,2.5-4.1,1.1c-3.7-3.3-7.3-6.7-10.9-10.1c-1.1-1.1-1-2.6,0.3-3.7c2.5-2.3,5-4.6,7.5-6.9
		c1-0.9,2-1.9,3-2.8c1.5-1.3,3.4-0.8,4.1,0.9c0.4,1.1-0.1,1.9-0.8,2.7c-1.4,1.3-2.9,2.7-4.3,4C15.6,21.2,15.1,21.7,14.5,22.2z"/>
</g>
</svg>
